#tb 0: 1/25
#media_type 0: video
#codec_id 0: rawvideo
#dimensions 0: 352x288
#sar 0: 0/1
0,          0,          0,        1,   304128, 0xa16e6a0b
0,          1,          1,        1,   304128, 0xfba3088a
0,          2,          2,        1,   304128, 0xf015bfa4
0,          3,          3,        1,   304128, 0xb992d547
0,          4,          4,        1,   304128, 0x7edbd2b1
0,          5,          5,        1,   304128, 0xff5b4d01
0,          6,          6,        1,   304128, 0x30b9172d
0,          7,          7,        1,   304128, 0xe72268e4
0,          8,          8,        1,   304128, 0xf60253d6
0,          9,          9,        1,   304128, 0xac06002f
0,         10,         10,        1,   304128, 0x92da1eb2
0,         11,         11,        1,   304128, 0x7b6371fb
0,         12,         12,        1,   304128, 0x1fcd4d5e
0,         13,         13,        1,   304128, 0x1f586948
0,         14,         14,        1,   304128, 0xae5a7031
0,         15,         15,        1,   304128, 0x48a1794c
0,         16,         16,        1,   304128, 0xf90552c0
0,         17,         17,        1,   304128, 0x0807982c
0,         18,         18,        1,   304128, 0x25d82ffe
0,         19,         19,        1,   304128, 0x632561e3
0,         20,         20,        1,   304128, 0xfed94c2f
0,         21,         21,        1,   304128, 0x12713822
0,         22,         22,        1,   304128, 0x00c7db1a
0,         23,         23,        1,   304128, 0x09fa7083
0,         24,         24,        1,   304128, 0xf2df59a1
0,         25,         25,        1,   304128, 0x4c064632
0,         26,         26,        1,   304128, 0xce775fed
0,         27,         27,        1,   304128, 0x0fbc36f8
0,         28,         28,        1,   304128, 0xf10012ba
0,         29,         29,        1,   304128, 0xfdfca550
0,         30,         30,        1,   304128, 0xf31b4071
0,         31,         31,        1,   304128, 0x8bcdb647
0,         32,         32,        1,   304128, 0x65588b51
0,         33,         33,        1,   304128, 0x0d908c20
0,         34,         34,        1,   304128, 0xf4704ce7
0,         35,         35,        1,   304128, 0xdfc65677
0,         36,         36,        1,   304128, 0x0551b482
0,         37,         37,        1,   304128, 0xe9e578d5
0,         38,         38,        1,   304128, 0xd6d63af4
0,         39,         39,        1,   304128, 0xb8e41d52
0,         40,         40,        1,   304128, 0x2ad3455c
0,         41,         41,        1,   304128, 0x69717df1
0,         42,         42,        1,   304128, 0x761c4482
0,         43,         43,        1,   304128, 0x9c630888
0,         44,         44,        1,   304128, 0x533a20a7
0,         45,         45,        1,   304128, 0x086d1135
0,         46,         46,        1,   304128, 0x3eea1139
0,         47,         47,        1,   304128, 0x7687ff8d
0,         48,         48,        1,   304128, 0x8eaeefcc
0,         49,         49,        1,   304128, 0x96a2a04f
